HIERARCHY
ROOT Hips
{
	OFFSET -3.958830 18.904000 13.208200
	CHANNELS 6 Xposition Yposition Zposition Zrotation Yrotation Xrotation 
	JOINT LHipJoint
	{
		OFFSET 0.000000 0.000000 0.000000
		CHANNELS 3 Zrotation Yrotation Xrotation
		JOINT LeftUpLeg
		{
			OFFSET 1.800000 -1.400000 0.085000
			CHANNELS 3 Zrotation Yrotation Xrotation
			JOINT LeftLeg
			{
				OFFSET 2.215000 -6.000000 0.000000
				CHANNELS 3 Zrotation Yrotation Xrotation
				JOINT LeftFoot
				{
					OFFSET 2.500000 -6.900000 0.000000
					CHANNELS 3 Zrotation Yrotation Xrotation
					JOINT LeftToeBase
					{
						OFFSET 0.200000 -0.500000 1.950000
						CHANNELS 3 Zrotation Yrotation Xrotation
						End Site
						{
							OFFSET 0.000000 0.000000 0.000000
						}
					}
				}
			}
		}
	}
	JOINT RHipJoint
	{
		OFFSET 0.000000 0.000000 0.000000
		CHANNELS 3 Zrotation Yrotation Xrotation
		JOINT RightUpLeg
		{
			OFFSET -1.800000 -1.400000 0.085000
			CHANNELS 3 Zrotation Yrotation Xrotation
			JOINT RightLeg
			{
				OFFSET -2.215000 -6.000000 0.000000
				CHANNELS 3 Zrotation Yrotation Xrotation
				JOINT RightFoot
				{
					OFFSET -2.500000 -6.900000 0.000000
					CHANNELS 3 Zrotation Yrotation Xrotation
					JOINT RightToeBase
					{
						OFFSET -0.200000 -0.500000 1.950000
						CHANNELS 3 Zrotation Yrotation Xrotation
						End Site
						{
							OFFSET 0.000000 0.000000 0.000000
						}
					}
				}
			}
		}
	}
	JOINT LowerBack
	{
		OFFSET 0.000000 0.000000 0.000000
		CHANNELS 3 Zrotation Yrotation Xrotation
		JOINT Spine
		{
			OFFSET -0.087000 1.940000 -0.288900
			CHANNELS 3 Zrotation Yrotation Xrotation
			JOINT Spine1
			{
				OFFSET 0.000000 1.950000 0.060000
				CHANNELS 3 Zrotation Yrotation Xrotation
				JOINT Neck
				{
					OFFSET 0.000000 0.000000 0.000000
					CHANNELS 3 Zrotation Yrotation Xrotation
					JOINT Neck1
					{
						OFFSET 0.000000 1.600000 0.340000
						CHANNELS 3 Zrotation Yrotation Xrotation
						JOINT Head
						{
							OFFSET 0.000000 1.667000 -0.240000
							CHANNELS 3 Zrotation Yrotation Xrotation
							End Site
							{
								OFFSET 0.000000 0.000000 0.000000
							}
						}
					}
				}
				JOINT LeftShoulder
				{
					OFFSET 0.000000 0.000000 0.000000
					CHANNELS 3 Zrotation Yrotation Xrotation
					JOINT LeftArm
					{
						OFFSET 2.700000 1.550000 -0.730000
						CHANNELS 3 Zrotation Yrotation Xrotation
						JOINT LeftForeArm
						{
							OFFSET 5.450000 0.000000 0.000000
							CHANNELS 3 Zrotation Yrotation Xrotation
							JOINT LeftHand
							{
								OFFSET 3.450000 0.000000 0.000000
								CHANNELS 3 Zrotation Yrotation Xrotation
								JOINT LeftHandIndex1
								{
									OFFSET 0.750000 0.000000 0.000000
									CHANNELS 3 Zrotation Yrotation Xrotation
									End Site
									{
										OFFSET 0.000000 0.000000 0.000000
									}
								}
							}
						}
					}
				}
				JOINT RightShoulder
				{
					OFFSET 0.000000 0.000000 0.000000
					CHANNELS 3 Zrotation Yrotation Xrotation
					JOINT RightArm
					{
						OFFSET -2.700000 1.550000 -0.730000
						CHANNELS 3 Zrotation Yrotation Xrotation
						JOINT RightForeArm
						{
							OFFSET -5.450000 0.000000 0.000000
							CHANNELS 3 Zrotation Yrotation Xrotation
							JOINT RightHand
							{
								OFFSET -3.450000 0.000000 0.000000
								CHANNELS 3 Zrotation Yrotation Xrotation
								JOINT RightHandIndex1
								{
									OFFSET -0.750000 0.000000 0.000000
									CHANNELS 3 Zrotation Yrotation Xrotation
									End Site
									{
										OFFSET 0.000000 0.000000 0.000000
									}
								}
							}
						}
					}
				}
			}
		}
	}
}
MOTION
Frames: 6
Frame Time: 0.016667
-3.923550 16.577540 -8.763260 -11.045641 -6.799854 2.980998 -15.759585 13.858953 3.188602 -6.687098 0.543334 0.047293 -8.810321 8.101519 19.528390 0.257196 5.458855 2.716627 0.302690 0.228490 0.109090 18.017587 -7.936820 4.646342 21.544362 9.726153 -35.991433 -7.185711 -2.169569 42.756525 -0.578312 -4.735993 2.655709 0.185930 0.107660 0.043470 -2.302182 -6.591983 -8.594137 3.387997 -12.161287 22.742769 -2.052161 -10.326644 0.059376 4.932319 -10.792418 -11.100349 -25.064404 13.400149 28.297196 3.828340 4.578950 -10.166910 -17.294979 -5.637180 3.287006 -44.122203 -4.360245 -2.165450 -44.723992 -18.476509 4.154584 -3.515218 3.330203 0.321450 -0.052470 0.052970 0.143420 9.315854 11.390815 5.924556 -18.422159 -18.675519 -2.642970 -52.088966 18.256628 -6.116365 2.657226 -1.741788 -0.109090 0.226740 -0.014760 -0.059380 
-3.928840 16.531270 -8.784010 -11.467221 -7.618552 3.016201 -15.792022 13.804304 3.155022 -6.370695 0.831744 0.819360 -9.288227 8.103881 18.081269 0.303021 5.390108 2.748671 0.293190 0.218970 0.090340 18.015857 -7.737829 4.854708 22.745489 10.670171 -37.321194 -8.625879 -1.583405 44.663656 -0.649584 -5.026351 2.567907 0.159450 0.096050 0.045280 -2.250933 -6.701531 -8.706209 3.143111 -11.915956 23.945842 -1.540514 -9.991246 -0.507962 5.275838 -10.823797 -11.488694 -24.866605 12.714002 27.795196 4.260510 3.832100 -10.366790 -17.524560 -5.640778 3.558651 -44.565665 -3.178656 -3.090229 -49.395836 -23.239770 6.681065 -3.473616 3.391407 0.318780 -0.069800 0.060960 0.150380 8.965821 11.711816 6.377642 -19.522952 -20.511376 -1.717619 -48.970219 16.503776 -4.779666 2.690904 -1.723369 -0.088060 0.206770 -0.022790 -0.044370 
-3.918270 16.504290 -8.800270 -11.583936 -8.827596 2.812850 -15.812746 13.748539 3.179898 -6.267356 0.707892 0.855359 -10.639886 8.435992 17.815597 0.363612 5.467350 2.723892 0.308680 0.239940 0.096600 18.008913 -7.656139 4.932528 23.906240 10.865243 -37.378728 -10.629316 -0.690522 45.448326 -0.710107 -5.179805 2.522069 0.154110 0.076260 0.046950 -2.203349 -6.722397 -8.791237 2.207362 -11.739176 25.193407 -1.348722 -9.931809 -0.855685 5.490499 -10.441730 -11.627597 -23.789672 12.365478 28.170151 4.833300 3.644090 -10.754990 -18.573618 -6.255546 3.872777 -43.844519 -2.234113 -3.775297 -51.221269 -26.843492 8.557312 -3.428539 3.431514 0.322530 -0.088340 0.079900 0.162190 9.602151 12.162432 6.565497 -20.572403 -20.419361 -1.290465 -46.440520 14.698002 -3.787192 2.710013 -1.707027 -0.068090 0.191960 -0.045290 -0.037060 
-3.915650 16.500770 -8.794200 -11.059111 -12.898314 1.823624 -15.818799 13.629690 3.311174 -7.188233 0.283049 0.347527 -13.020126 9.258149 19.103777 0.487454 5.730670 2.610515 0.342910 0.291780 0.127710 18.005936 -7.707621 4.890023 25.998226 10.089758 -33.780783 -14.901627 1.459402 43.079999 -0.747385 -4.984108 2.596917 0.151240 0.025370 0.055770 -2.162027 -6.510247 -8.887113 0.000291 -10.738801 26.577125 -1.645187 -9.391708 -1.493053 5.654758 -9.848429 -11.856024 -22.830601 13.548143 30.427350 5.603370 4.907530 -11.122870 -20.578296 -7.201471 4.645628 -41.761719 0.679601 -5.071814 -52.035273 -29.701029 9.815807 -3.357802 3.464270 0.344640 -0.121900 0.135590 0.168880 11.297660 13.055157 6.438347 -21.758601 -18.453695 -1.535488 -46.153295 14.806140 -3.802167 2.714082 -1.672693 -0.030930 0.162880 -0.083560 -0.035920 
-3.871120 16.483140 -8.797390 -10.634558 -13.591298 1.532387 -15.795902 13.568353 3.388764 -6.664213 -0.384351 -0.396769 -15.675156 10.181922 20.295425 0.576756 6.109112 2.470687 0.356850 0.311450 0.138560 18.016714 -7.794073 4.788849 25.587616 9.624659 -33.889800 -16.645183 2.089133 42.591487 -0.767932 -5.006779 2.580518 0.156680 0.005940 0.060460 -2.204287 -6.374582 -8.900490 -0.686119 -11.113859 27.131691 -2.061165 -10.070093 -1.685121 5.636934 -9.393301 -11.816916 -21.652139 13.246085 31.001974 5.934430 4.936560 -11.819120 -21.212006 -7.911104 4.893583 -40.951450 1.330507 -5.390576 -50.565050 -28.934141 9.001398 -3.328977 3.466929 0.354490 -0.134890 0.153200 0.168170 11.873508 13.290284 6.346949 -21.931911 -16.819806 -1.881725 -45.320350 14.053236 -3.543811 2.711939 -1.661122 -0.020980 0.153700 -0.092410 -0.037780 
-3.804030 16.473530 -8.823820 -10.085714 -12.092303 1.413505 -15.802243 13.561995 3.468610 -4.340983 -1.612579 -1.345533 -19.430108 11.611195 22.035525 0.709997 6.797722 2.240205 0.405180 0.373270 0.170120 17.991493 -7.856037 4.599526 23.407108 9.209375 -36.543823 -16.937365 1.878233 43.360529 -0.778078 -5.130624 2.523873 0.199930 0.000730 0.076670 -2.165834 -6.448496 -8.867390 -1.060538 -11.552186 27.956018 -1.927282 -10.593214 -0.907084 5.351734 -8.904284 -10.983300 -20.260439 11.907865 30.538752 5.188160 4.274660 -12.811340 -20.966644 -7.889088 4.010339 -39.188517 -2.320909 -3.907327 -49.474840 -29.193114 9.462475 -3.337373 3.490188 0.333150 -0.120830 0.160340 0.183540 12.062614 12.328063 6.028553 -22.053922 -18.026640 -1.426475 -45.193453 13.278583 -3.293887 2.730083 -1.709332 -0.003510 0.156320 -0.118610 -0.032670 
